HIERARCHY
ROOT Hips
{
	OFFSET	0.00	0.00	0.00
	CHANNELS 6 Xposition Yposition Zposition Zrotation Xrotation Yrotation
	JOINT LeftUpLeg
	{
		OFFSET	 0.126116	-0.014019	-0.065224
		CHANNELS 3 Zrotation Xrotation Yrotation
		JOINT LeftLeg
		{
			OFFSET	 0.000000	 0.000000	 0.569914
			CHANNELS 3 Zrotation Xrotation Yrotation
			JOINT LeftFoot
			{
				OFFSET	 0.000000	 0.000000	 0.544423
				CHANNELS 3 Zrotation Xrotation Yrotation
				JOINT LeftToeBase
				{
					OFFSET	 0.000000	 0.000000	 0.207117
					CHANNELS 3 Zrotation Xrotation Yrotation
					End Site
					{
						OFFSET	 0.000000	 0.000000	 0.207117
					}
				}
			}
		}
	}
	JOINT RightUpLeg
	{
		OFFSET	-0.124023	-0.008373	-0.065224
		CHANNELS 3 Zrotation Xrotation Yrotation
		JOINT RightLeg
		{
			OFFSET	 0.000000	 0.000000	 0.570047
			CHANNELS 3 Zrotation Xrotation Yrotation
			JOINT RightFoot
			{
				OFFSET	 0.000000	 0.000000	 0.544354
				CHANNELS 3 Zrotation Xrotation Yrotation
				JOINT RightToeBase
				{
					OFFSET	 0.000000	 0.000000	 0.207540
					CHANNELS 3 Zrotation Xrotation Yrotation
					End Site
					{
						OFFSET	 0.000000	 0.000000	 0.207540
					}
				}
			}
		}
	}
	JOINT Spine
	{
		OFFSET	 0.000184	-0.007763	 0.117403
		CHANNELS 3 Zrotation Xrotation Yrotation
		JOINT Spine1
		{
			OFFSET	 0.000000	 0.000000	 0.137269
			CHANNELS 3 Zrotation Xrotation Yrotation
			JOINT Spine2
			{
				OFFSET	 0.000000	 0.000000	 0.156879
				CHANNELS 3 Zrotation Xrotation Yrotation
				JOINT LeftShoulder
				{
					OFFSET	 0.080501	-0.002496	 0.160144
					CHANNELS 3 Zrotation Xrotation Yrotation
					JOINT LeftArm
					{
						OFFSET	 0.000000	 0.000000	 0.164363
						CHANNELS 3 Zrotation Xrotation Yrotation
						JOINT LeftForeArm
						{
							OFFSET	 0.000000	 0.000000	 0.364576
							CHANNELS 3 Zrotation Xrotation Yrotation
							JOINT LeftHand
							{
								OFFSET	 0.000000	 0.000000	 0.360812
								CHANNELS 3 Zrotation Xrotation Yrotation
								JOINT LeftHandIndex1
								{
									OFFSET	 0.000000	 0.000000	 0.086006
									CHANNELS 3 Zrotation Xrotation Yrotation
									JOINT LeftHandIndex2
									{
										OFFSET	 0.000000	 0.000000	 0.047236
										CHANNELS 3 Zrotation Xrotation Yrotation
										JOINT LeftHandIndex3
										{
											OFFSET	-0.004284	-0.000551	 0.038166
											CHANNELS 3 Zrotation Xrotation Yrotation
											End Site
											{
												OFFSET	-0.004284	-0.000551	 0.038166
											}
										}
									}
								}
							}
						}
					}
				}
				JOINT Neck
				{
					OFFSET	 0.000000	 0.000000	 0.176489
					CHANNELS 3 Zrotation Xrotation Yrotation
					JOINT Head
					{
						OFFSET	 0.000000	-0.001747	 0.077940
						CHANNELS 3 Zrotation Xrotation Yrotation
						End Site
						{
							OFFSET	 0.000000	-0.001747	 0.077940
						}
					}
				}
				JOINT RightShoulder
				{
					OFFSET	-0.080363	 0.000306	 0.159706
					CHANNELS 3 Zrotation Xrotation Yrotation
					JOINT RightArm
					{
						OFFSET	 0.000000	 0.000000	 0.164196
						CHANNELS 3 Zrotation Xrotation Yrotation
						JOINT RightForeArm
						{
							OFFSET	 0.000000	 0.000000	 0.365611
							CHANNELS 3 Zrotation Xrotation Yrotation
							JOINT RightHand
							{
								OFFSET	 0.000000	 0.000000	 0.360648
								CHANNELS 3 Zrotation Xrotation Yrotation
								JOINT RightHandIndex1
								{
									OFFSET	 0.000000	 0.000000	 0.069977
									CHANNELS 3 Zrotation Xrotation Yrotation
									JOINT RightHandIndex2
									{
										OFFSET	 0.000000	 0.000000	 0.052305
										CHANNELS 3 Zrotation Xrotation Yrotation
										JOINT RightHandIndex3
										{
											OFFSET	 0.009002	-0.000782	 0.042196
											CHANNELS 3 Zrotation Xrotation Yrotation
											End Site
											{
												OFFSET	 0.009002	-0.000782	 0.042196
											}
										}
									}
								}
							}
						}
					}
				}
			}
		}
	}
}
MOTION
Frames:    8
Frame Time: 0.03333334
 0.011915	 0.016537	 1.200816	 4.965723	-1.082464	-2.720801	 5.359938	-9.573298	-173.733900	 0.960906	-38.389470	 0.377694	 62.000740	 82.550740	-66.107350	-2.369632	 31.575110	-0.069027	-11.552850	-32.958330	-176.240300	 9.903602	-47.156240	 7.858980	 8.722946	 71.541880	-4.090027	 2.358843	 33.019150	 0.103667	-13.243080	 8.487723	 2.059080	-2.206381	 2.564022	-1.499982	 3.233912	-2.516686	 1.646584	-93.950580	 58.950720	 175.364100	 10.386580	 30.683220	-43.645810	-4.633066	 0.103105	-2.591115	-6.622451	-30.810910	-10.733140	-4.870153	 19.241990	-2.790682	-3.878807	 21.507530	 2.199988	-4.806297	 5.568624	 0.145619	-0.072914	-5.078672	 0.185660	 1.096666	 1.779177	 2.710122	 89.776320	 61.651300	 179.986200	-20.847340	 54.569470	 10.573280	 1.592598	-1.275714	 12.314210	-1.143713	-16.753940	 1.613608	 6.292365	 24.723160	-0.538647	 1.903104	 44.557990	-7.008797	 0.550644	 24.169200	 3.555936
 0.008453	-0.050287	 1.197127	 5.836573	-0.249926	-2.756850	 4.246272	-6.165010	-174.474800	 1.312882	-36.522720	 0.571467	 74.030110	 83.848940	-78.352220	-2.368128	 31.825110	-0.074694	-14.519970	-35.253330	-177.749600	 9.309567	-35.186040	 5.841349	 4.224611	 68.876740	-0.173740	 2.359048	 32.988620	 0.102958	-19.895920	 7.840002	 1.808717	-2.415358	 3.182080	-1.314373	 2.972599	-3.342586	 1.579255	-94.166240	 58.990220	 174.899100	 8.199870	 27.436390	-45.042350	-8.069180	 0.467949	-4.535373	-11.779100	-36.590210	-15.325020	-4.862911	 19.428480	-2.803131	-3.866757	 21.661350	 2.187741	-4.803579	 5.600627	 0.143743	-0.027555	-5.113285	 0.247619	 0.951952	 1.495962	 2.567736	 89.693430	 61.799400	 179.787400	-20.435770	 56.239590	 7.773046	 3.866428	-0.408124	 13.126050	 2.057774	-22.432230	 2.986784	 6.271450	 23.208160	-0.556480	 2.081318	 43.067240	-7.166854	 0.872591	 22.736270	 3.396547
 0.004548	-0.113418	 1.189963	 6.316466	 0.558933	-3.110043	 3.630051	-2.687274	-174.909400	 1.505466	-34.366330	 0.650764	 88.854270	 84.800240	-93.280930	-2.365685	 32.217080	-0.083635	-16.262120	-36.592300	-179.038900	 9.294617	-24.521430	 4.207904	 2.490179	 65.816770	 0.535786	 2.361235	 32.661720	 0.095390	-25.869830	 7.056562	 1.837452	-2.550822	 3.790806	-1.065825	 2.647989	-4.075215	 1.418069	-94.356540	 58.985770	 174.494200	 6.719685	 24.994340	-46.132610	-11.911330	 1.041138	-6.430747	-17.472460	-41.658730	-19.547380	-4.847249	 19.786270	-2.818255	-3.849616	 21.878940	 2.170329	-4.794370	 5.709143	 0.137378	-0.006218	-5.179319	 0.310968	 0.675516	 1.231381	 2.517112	 89.564930	 61.951680	 179.476300	-19.545620	 57.250130	 6.224285	 5.625542	 0.629283	 11.807680	 4.710115	-27.107430	 4.243239	 6.240396	 21.378290	-0.616649	 2.248800	 41.585720	-7.314084	 1.284373	 20.851880	 3.202574
-0.000118	-0.170301	 1.178994	 6.485046	 0.996811	-3.480135	 3.278036	 0.896854	-175.335300	 1.605850	-32.436200	 0.672203	 103.761200	 85.498370	-108.196600	-2.359390	 33.174280	-0.105706	-15.983900	-40.640170	-179.633000	 9.332466	-21.905650	 3.798352	 7.387359	 71.218600	-5.271301	 2.353563	 33.771030	 0.121255	-30.974320	 6.386655	 1.962485	-2.585310	 4.701429	-0.798706	 2.313802	-4.828472	 1.215205	-94.463040	 58.964460	 174.270600	 5.600150	 23.560710	-47.076370	-15.435170	 1.764917	-8.169654	-23.027760	-44.708150	-23.546320	-4.827540	 20.182180	-2.822492	-3.827161	 22.162110	 2.147518	-4.773166	 5.958152	 0.122703	 0.020498	-5.269403	 0.340620	 0.366285	 0.953072	 2.441779	 89.455890	 62.039870	 179.211100	-18.187510	 57.905660	 3.868701	 7.007270	 1.516925	 12.334960	 6.870609	-30.608230	 5.084379	 6.200149	 19.262070	-0.700779	 2.508304	 39.123150	-7.539388	 1.731945	 18.739330	 3.004960
-0.005359	-0.229097	 1.168331	 6.731145	 1.102629	-3.746332	 2.786036	 5.274037	-175.904800	 1.762916	-29.268610	 0.689557	 101.755400	 86.454860	-106.195400	-2.343845	 35.259030	-0.155125	-15.839940	-43.953550	 179.822100	 9.976264	-21.865380	 4.038442	 13.486090	 74.417110	-12.490270	 2.339524	 35.580960	 0.164587	-35.551380	 6.215018	 2.052317	-2.623080	 4.957529	-0.621325	 1.931423	-5.448283	 1.018385	-94.529530	 58.915190	 174.137100	 4.691704	 22.889510	-47.317440	-18.229130	 2.602048	-9.753763	-28.463230	-46.297190	-28.097140	-4.837885	 20.436470	-2.957390	-3.799770	 22.504770	 2.119699	-4.738795	 6.359995	 0.098811	 0.082421	-5.365160	 0.352861	 0.055623	 0.737356	 2.190319	 89.378260	 61.997880	 179.024800	-16.549730	 58.164520	 1.539225	 8.360986	 2.466130	 12.382920	 9.055345	-33.066220	 5.839399	 6.170382	 17.050830	-0.704792	 2.781480	 36.289840	-7.772357	 2.183457	 16.542680	 2.820293
-0.011463	-0.294294	 1.160631	 6.984022	 1.063000	-3.629507	 2.206859	 9.931072	-176.895700	 2.123000	-26.000800	 0.776261	 63.898540	 87.289860	-68.386870	-2.305365	 39.343600	-0.258162	-15.661440	-43.711430	 179.091700	 10.003270	-21.146390	 3.922290	 12.961980	 73.699170	-12.100380	 2.337508	 35.820630	 0.170452	-39.657410	 6.107891	 1.905229	-2.734818	 4.727245	-0.726946	 1.464169	-5.767402	 0.878795	-94.529140	 59.104580	 174.106500	 4.087609	 22.849900	-46.668280	-20.753130	 3.538221	-11.204600	-33.349760	-46.411320	-32.269990	-4.866239	 20.566490	-3.160825	-3.773547	 22.829840	 2.093074	-4.694256	 6.877356	 0.067664	 0.154480	-5.453487	 0.303587	-0.260205	 0.600792	 1.941746	 89.356790	 61.765320	 178.981800	-15.074290	 57.923680	 0.025689	 9.852119	 3.436997	 11.273890	 11.028640	-34.220160	 6.414175	 6.177791	 14.845400	-0.525234	 2.965824	 34.224520	-7.926762	 2.619412	 14.362370	 2.656682
-0.018691	-0.362670	 1.154860	 7.243979	 0.785336	-2.958843	 2.056683	 13.585870	-178.652300	 1.932939	-25.720610	 0.685930	 17.074730	 86.267810	-20.801400	-2.205799	 46.491970	-0.465725	-14.449620	-41.743780	 178.433300	 7.725162	-22.870460	 3.317536	 6.501610	 71.994000	-2.586792	 2.340151	 35.504480	 0.162732	-43.064250	 6.063582	 1.229861	-2.909763	 4.357122	-0.837894	 0.897038	-5.803155	 0.642513	-94.474900	 59.317070	 174.187300	 3.941525	 23.121850	-45.453980	-23.251370	 4.537789	-12.509530	-36.076090	-44.858510	-33.969320	-4.888319	 20.678890	-3.324841	-3.757340	 23.029360	 2.076619	-4.642761	 7.470577	 0.031400	 0.234451	-5.477589	 0.253340	-0.606201	 0.586627	 1.955306	 89.354420	 61.498590	 178.985900	-13.886510	 57.555850	-2.047352	 11.241120	 4.429625	 12.582070	 12.482140	-33.795250	 6.680026	 6.243219	 12.653070	-0.114324	 3.095841	 32.687870	-8.034141	 3.011189	 12.356570	 2.522540
-0.027438	-0.441693	 1.152220	 8.145434	 0.032480	-2.020107	 2.575895	 15.167240	 178.661200	 0.207743	-29.667270	-0.071756	-3.721267	 80.866960	 3.153433	-2.000431	 55.203330	-0.795721	-12.422380	-39.180430	 178.361600	 6.441199	-26.428040	 3.217720	-6.351434	 67.118220	 14.462770	 2.335519	 36.053020	 0.176153	-45.763680	 6.288770	 0.234716	-2.934560	 4.251034	-0.603656	 0.083125	-5.799250	 0.129374	-94.405630	 59.134240	 174.365700	 4.418373	 23.334450	-44.182850	-25.995780	 5.690272	-13.793600	-35.796950	-40.992490	-32.068760	-4.895895	 20.875480	-3.434530	-3.738463	 23.260430	 2.057454	-4.580199	 8.184450	-0.013020	 0.345369	-5.427637	 0.276382	-1.101040	 0.762180	 2.126710	 89.247760	 61.411550	 178.736900	-12.755000	 57.104390	-3.332733	 13.086330	 5.577577	 13.871120	 14.167280	-31.221180	 7.145756	 6.326084	 10.336310	 0.306220	 3.269997	 30.519440	-8.175769	 3.368472	 10.491920	 2.411240
